<?xml version="1.0" standalone="no"?>
<!DOCTYPE svg PUBLIC "-//W3C//DTD SVG 20010904//EN"
 "http://www.w3.org/TR/2001/REC-SVG-20010904/DTD/svg10.dtd">
<svg version="1.0" xmlns="http://www.w3.org/2000/svg"
 width="700.000000pt" height="700.000000pt" viewBox="0 0 700.000000 700.000000"
 preserveAspectRatio="xMidYMid meet">
<metadata>
Created by potrace 1.14, written by Peter Selinger 2001-2017
</metadata>
<g transform="translate(0.000000,700.000000) scale(0.100000,-0.100000)"
fill="#000000" stroke="none">
<path d="M3363 6607 c-72 -122 -292 -492 -489 -822 -196 -330 -373 -628 -393
-661 -20 -34 -78 -133 -130 -221 l-95 -159 -334 -199 c-184 -110 -353 -211
-376 -224 -22 -13 -205 -121 -406 -241 -201 -119 -477 -284 -615 -365 -137
-81 -270 -161 -293 -176 -24 -15 -49 -30 -55 -32 -7 -2 -10 -6 -7 -9 5 -5 198
-121 266 -159 23 -13 222 -132 443 -264 221 -132 418 -249 439 -261 20 -12
201 -119 402 -239 400 -239 414 -247 486 -289 49 -28 82 -75 197 -280 16 -28
35 -58 43 -67 8 -8 14 -19 14 -22 0 -4 11 -26 26 -48 14 -22 33 -55 43 -72 10
-18 52 -88 93 -157 41 -69 160 -269 265 -445 104 -176 277 -466 384 -645 107
-179 200 -337 208 -353 7 -15 16 -27 20 -27 3 0 67 103 141 228 74 125 173
291 220 370 47 79 90 151 95 160 6 10 42 70 80 135 39 65 84 142 100 171 17
29 35 60 41 67 8 11 110 180 159 267 6 9 50 85 100 167 49 83 99 166 110 186
11 20 60 103 109 185 l90 150 115 68 c64 38 218 130 344 205 125 75 243 145
262 156 20 11 100 58 178 105 364 217 762 453 964 573 122 73 222 134 222 137
0 3 -79 52 -177 110 -97 58 -276 164 -397 236 -742 441 -931 553 -1110 659
-110 65 -211 125 -225 134 -14 10 -59 37 -101 61 -69 40 -79 50 -120 119 -93
159 -95 163 -434 731 -84 140 -218 368 -300 505 -81 138 -158 266 -170 285
-48 76 -85 141 -85 150 0 6 -4 10 -10 10 -5 0 -10 4 -10 10 0 5 -35 67 -77
137 -43 71 -84 140 -92 156 -8 15 -17 27 -20 27 -3 0 -65 -101 -138 -223z
m318 -1972 c61 -10 187 -45 229 -63 144 -61 213 -100 315 -183 180 -145 315
-351 378 -574 35 -124 42 -180 41 -330 -1 -139 -17 -233 -62 -365 -137 -401
-518 -710 -936 -758 -111 -13 -348 -4 -376 13 -4 2 -21 7 -39 10 -96 17 -256
87 -368 161 -230 153 -405 399 -473 664 -30 117 -35 165 -33 310 1 121 6 160
38 294 20 86 83 219 153 326 175 266 502 468 806 497 33 3 63 8 66 10 6 6 210
-4 261 -12z"/>
<path d="M5305 6154 c-140 -33 -242 -89 -335 -183 -135 -137 -204 -317 -204
-531 1 -374 167 -623 484 -722 66 -20 94 -23 230 -22 140 0 163 3 235 27 142
47 262 133 331 237 26 39 40 66 84 161 49 103 61 404 21 543 -73 259 -248 428
-512 492 -53 14 -275 12 -334 -2z m323 -299 c145 -66 226 -231 218 -445 -5
-104 -8 -126 -31 -191 -60 -168 -196 -259 -371 -246 -220 16 -347 183 -347
457 0 288 148 462 388 456 64 -1 93 -8 143 -31z"/>
<path d="M1316 6131 c-7 -11 -4 -1411 3 -1412 45 -5 304 -2 308 5 3 4 5 136 5
292 l0 284 21 1 c12 0 138 1 280 2 207 0 257 3 258 14 1 7 2 67 3 133 l1 120
-110 1 c-60 0 -187 0 -282 -1 l-172 -1 0 151 0 150 317 2 317 3 0 115 c0 63
-1 122 -3 132 -4 15 -44 16 -473 16 -258 0 -471 -3 -473 -7z"/>
<path d="M1697 2165 c-1 -2 -27 -5 -57 -8 -106 -12 -214 -55 -291 -119 -34
-28 -88 -109 -103 -155 -35 -106 -29 -229 15 -319 25 -53 94 -125 153 -159 47
-28 232 -105 251 -105 17 0 165 -76 191 -98 31 -27 44 -56 44 -102 0 -121
-119 -165 -364 -136 -71 9 -92 15 -174 48 -40 17 -74 29 -76 27 -4 -5 -86
-239 -86 -244 0 -8 73 -42 125 -60 108 -36 210 -50 370 -49 263 2 420 75 497
232 32 65 33 70 33 192 -1 114 -3 130 -28 183 -55 120 -145 182 -421 288 -164
63 -214 100 -223 165 -7 52 16 97 60 121 26 14 57 18 157 18 125 0 155 -6 282
-60 12 -5 21 1 31 22 25 50 79 212 73 222 -9 14 -166 68 -233 80 -53 10 -219
21 -226 16z"/>
<path d="M5152 2139 c-107 -10 -168 -18 -186 -25 -14 -6 -16 -74 -16 -705 l0
-699 160 0 160 0 0 260 0 260 79 0 79 0 49 -67 c59 -82 162 -247 228 -365 l49
-88 178 0 c98 0 178 2 178 5 0 7 -100 197 -138 260 -51 86 -120 191 -169 258
l-42 58 57 30 c134 71 200 179 206 343 6 172 -58 302 -189 381 -150 90 -375
121 -683 94z m358 -274 c128 -19 195 -94 183 -206 -13 -122 -96 -167 -320
-174 l-103 -2 0 193 0 193 28 3 c41 5 161 1 212 -7z"/>
</g>
</svg>
